<?xml version="1.0" encoding="utf-8"?>
<!-- Generator: Adobe Illustrator 27.5.0, SVG Export Plug-In . SVG Version: 6.00 Build 0)  -->
<svg version="1.1" id="Layer_1" xmlns="http://www.w3.org/2000/svg" xmlns:xlink="http://www.w3.org/1999/xlink" x="0px" y="0px"
	 viewBox="0 0 1600 7000" style="enable-background:new 0 0 8000 7000;" xml:space="preserve">
<g>
	<rect style="fill-rule:evenodd;clip-rule:evenodd;fill:#FFFFFF;" width="7000" height="7000"/>
	<polygon style="opacity:0.47;fill-rule:evenodd;clip-rule:evenodd;fill:#B3B3B3;" points="3980.205,5560.13 3170.583,6999.999 
		4000,6999.999 4000,5635.985 	"/>
	<polygon style="opacity:0.47;fill-rule:evenodd;clip-rule:evenodd;fill:#CCCCCC;" points="4000,4938.02 3475.215,5185.237 
		4000,6359.722 	"/>
	<polygon style="opacity:0.47;fill-rule:evenodd;clip-rule:evenodd;fill:#E6E6E6;" points="3859.2,6172.267 2873.924,4929.574 
		2997.602,6999.999 3083.871,6999.999 	"/>
	<polygon style="opacity:0.47;fill-rule:evenodd;clip-rule:evenodd;fill:#E6E6E6;" points="2000.006,6999.999 3371.406,6999.993 
		2000.001,5591.875 	"/>
	<polygon style="opacity:0.47;fill-rule:evenodd;clip-rule:evenodd;fill:#CCCCCC;" points="2445.378,6433.426 3102.988,5702.878 
		2037.397,5359.952 	"/>
	<polygon style="opacity:0.47;fill-rule:evenodd;clip-rule:evenodd;fill:#B3B3B3;" points="19.795,5560.13 829.417,6999.999 
		0,6999.999 0,5635.985 	"/>
	<polygon style="opacity:0.47;fill-rule:evenodd;clip-rule:evenodd;fill:#CCCCCC;" points="0,4938.02 524.787,5185.237 0,6359.722 	
		"/>
	<polygon style="opacity:0.47;fill-rule:evenodd;clip-rule:evenodd;fill:#E6E6E6;" points="140.8,6172.267 1126.076,4929.574 
		1002.399,6999.999 916.129,6999.999 	"/>
	<polygon style="opacity:0.47;fill-rule:evenodd;clip-rule:evenodd;fill:#E6E6E6;" points="1999.994,6999.999 628.594,6999.993 
		2000.001,5591.875 	"/>
	<polygon style="opacity:0.47;fill-rule:evenodd;clip-rule:evenodd;fill:#CCCCCC;" points="1554.623,6433.426 897.014,5702.878 
		1962.603,5359.952 	"/>
	<polygon style="opacity:0.47;fill-rule:evenodd;clip-rule:evenodd;fill:#B3B3B3;" points="3980.205,1439.87 3170.583,0 4000,0 
		4000,1364.016 	"/>
	<polygon style="opacity:0.47;fill-rule:evenodd;clip-rule:evenodd;fill:#CCCCCC;" points="4000,2061.979 3475.215,1814.762 
		4000,640.276 	"/>
	<polygon style="opacity:0.47;fill-rule:evenodd;clip-rule:evenodd;fill:#E6E6E6;" points="3859.2,827.732 2873.924,2070.426 
		2997.602,0 3083.871,0 	"/>
	<polygon style="opacity:0.47;fill-rule:evenodd;clip-rule:evenodd;fill:#E6E6E6;" points="2000.006,0 3371.406,0.006 
		2000.001,1408.125 	"/>
	<polygon style="opacity:0.47;fill-rule:evenodd;clip-rule:evenodd;fill:#CCCCCC;" points="2445.378,566.572 3102.988,1297.122 
		2037.397,1640.047 	"/>
	<polygon style="opacity:0.47;fill-rule:evenodd;clip-rule:evenodd;fill:#B3B3B3;" points="19.795,1439.87 829.417,0 0,0 
		0,1364.016 	"/>
	<polygon style="opacity:0.47;fill-rule:evenodd;clip-rule:evenodd;fill:#CCCCCC;" points="0,2061.979 524.787,1814.762 0,640.276 	
		"/>
	<polygon style="opacity:0.47;fill-rule:evenodd;clip-rule:evenodd;fill:#E6E6E6;" points="140.8,827.732 1126.076,2070.426 
		1002.399,0 916.129,0 	"/>
	<polygon style="opacity:0.47;fill-rule:evenodd;clip-rule:evenodd;fill:#E6E6E6;" points="1999.994,0 628.594,0.006 
		2000.001,1408.125 	"/>
	<polygon style="opacity:0.47;fill-rule:evenodd;clip-rule:evenodd;fill:#CCCCCC;" points="1554.623,566.572 897.014,1297.122 
		1962.603,1640.047 	"/>
</g>
</svg>
